<svg id="Слой_1" data-name="Слой 1" xmlns="http://www.w3.org/2000/svg" viewBox="0 0 399.49 221.71"><defs><style>.cls-1{fill:#201600;fill-rule:evenodd;}.cls-2{fill:none;stroke:#201600;stroke-linecap:round;stroke-linejoin:round;stroke-width:0.71px;}</style></defs><title>logotype</title><path class="cls-1" d="M179.55,449.92c0,16.33,5.93,29,15.15,29,6.19,0,12-4.21,12-23.19,0-17.25-5.27-28.32-14.76-28.32-6.45,0-12.38,7.51-12.38,22.53Zm43.61,2.24c0,21.21-15.42,31.62-29.91,31.62-19.76,0-30.17-14.76-30.17-29.25,0-21.48,16.87-31.88,30.57-31.88C211.3,422.65,223.16,436.22,223.16,452.16Z" transform="translate(-98.89 -310.38)"/><path class="cls-1" d="M228.43,482.2v-4c8-1.05,8.83-1.71,8.83-10.27V407c0-8.3-.66-8.7-8.3-9.49v-3.69a148,148,0,0,0,22.79-4.61V468c0,8.82.92,9.48,9.09,10.27v4Z" transform="translate(-98.89 -310.38)"/><path class="cls-1" d="M272.83,404.86a8.49,8.49,0,0,1,8.43-8.43,8.32,8.32,0,0,1,8.43,8.43,8.41,8.41,0,0,1-8.56,8.3,8.53,8.53,0,0,1-8.3-8.3Zm-6.59,77.34v-4c7.91-.92,8.7-1.45,8.7-10.67V441.09c0-8.43-.79-9-7.64-10v-3.69a117.56,117.56,0,0,0,22.13-4.88v45.06c0,9,.66,9.75,8.83,10.67v4Z" transform="translate(-98.89 -310.38)"/><path class="cls-1" d="M339.76,440.7c-3.17-8-7.51-13.31-13.84-13.31-4.08,0-7.38,3.29-7.38,7.9s3.83,7.78,10.28,10.54c10.41,4.48,17.39,9.09,17.39,19,0,12.64-12,19-22.92,19-6.85,0-13.57-2.51-16.08-4.48-.92-2-2.1-11.2-2.1-17l3.69-.39c2.76,8.43,8.82,17,16.73,17a7.79,7.79,0,0,0,8-7.9c0-4.48-2.63-7.64-10.14-11.33-6.72-3.17-16.73-8-16.73-19,0-9.89,8.17-18.05,21.47-18.05a30.07,30.07,0,0,1,12.25,2.24c1.32,3,2.77,11.85,3.17,14.75Z" transform="translate(-98.89 -310.38)"/><path class="cls-1" d="M380.73,482.2a15.23,15.23,0,0,1-5.4,1.58c-9.49,0-14.89-4.88-14.89-16.34V430.16h-8.56l-.66-1.58,3.69-4.35h5.53v-9.62l12.65-9.75,1.71.66v18.71h13.7c1.45,1.31,1.19,4.87-.79,5.93H374.8v32.93c0,10.41,4.75,11.86,7.64,11.86a17.73,17.73,0,0,0,7.12-1.71l1.32,4.08Z" transform="translate(-98.89 -310.38)"/><path class="cls-1" d="M409.72,444.12c6.06,0,11.85-.13,17.91-.39,2.11,0,2.9-.4,3-2.51,0-6.85-3.55-13.44-9.35-13.44-5.4,0-10.41,5.93-11.59,16.34Zm34.78,25.82c-8,11.2-17.92,13.84-22.93,13.84-17,0-26.61-13-26.61-28.2a33.14,33.14,0,0,1,9.35-23.45c5.67-5.93,12.92-9.48,19.9-9.48,11.72,0,20.81,10.14,20.81,20.68,0,2.64-.79,4.22-3.55,4.61-2.37.4-18.58,1.58-32.41,2.11.39,15.55,9.09,22.79,18.44,22.79a21.39,21.39,0,0,0,14.76-6.06Z" transform="translate(-98.89 -310.38)"/><path class="cls-1" d="M474.67,436.61c4.48-7.77,9.88-14,15.28-14,5,0,8.43,3.55,8.43,7.64a9.16,9.16,0,0,1-5.66,8.43c-1.71.66-3,.39-3.82-.4-2.24-1.84-3.82-2.76-5.93-2.76-2.9,0-6.06,2.5-8.56,8.56v24.37c0,8.3.65,9,10.8,9.75v4h-34v-4c7.51-.79,8.69-1.45,8.69-9.75V440.17c0-7.38-.79-7.91-7.5-9.22v-3.43a122.65,122.65,0,0,0,22-5.14v14.23Z" transform="translate(-98.89 -310.38)"/><path class="cls-1" d="M174.34,497.7c0-1.16-.16-1.22-1.32-1.22h-1.35c-.94,0-1,.25-1,1.19a45.51,45.51,0,0,1-1.23,10c-.09.41,0,.58.49.58h2.8c1.54,0,1.64-.1,1.64-1.84V497.7Zm5.76-1.48c-2.09.16-2.22.45-2.22,2v8.12c0,1.67.19,1.87,1.13,1.87h1.25l-.67,6.18h-1.13l-.35-2.71c-.26-1.8-.58-2.22-1.93-2.22h-7c-1.16,0-1.42.42-1.87,2.32l-.64,2.61h-1.06V508.2h1.09a.79.79,0,0,0,.77-.52,22.76,22.76,0,0,0,1-3.32,36.5,36.5,0,0,0,.58-6.53c0-1-.19-1.29-1.38-1.45l-1-.16v-.93H180.1Z" transform="translate(-98.89 -310.38)"/><path class="cls-1" d="M187.51,506.2c0,1.8.58,2.12,1.77,2.12a3,3,0,0,0,3.18-3.06c0-2-1.41-2.86-3.79-2.86h-1.16v3.8Zm1-4.89c2.13,0,3.22-.78,3.22-2.48s-1.16-2.45-2.77-2.45c-1.19,0-1.41.19-1.41,1.06v3.87Zm3.38.38c2.58.29,4.45,1.26,4.45,3.48,0,3.25-3.58,4.28-7.54,4.28h-6.95v-1c2.06-.19,2.25-.45,2.25-2.54v-7.5c0-1.8-.19-2.16-2-2.28v-.88h8.53c2.81,0,4.8.88,4.8,3.16,0,2-1.9,2.83-3.51,3.19Z" transform="translate(-98.89 -310.38)"/><path class="cls-1" d="M202.89,501.56c0,4,1.45,7.08,3.71,7.08,1.51,0,2.93-1,2.93-5.66,0-4.22-1.29-6.92-3.61-6.92-1.58,0-3,1.83-3,5.5Zm10.66.55c0,5.18-3.77,7.73-7.31,7.73a7,7,0,0,1-7.37-7.15,7.5,7.5,0,0,1,7.47-7.79A7.06,7.06,0,0,1,213.55,502.11Z" transform="translate(-98.89 -310.38)"/><path class="cls-1" d="M228,509.45a3.31,3.31,0,0,1-3.48-1.87c-.71-1.29-1.32-2.77-1.77-3.64-.51-1.12-1.09-1.57-2.09-1.54v4c0,1.67.19,1.93,2.09,2.12v1h-7.66v-1c2-.19,2.12-.45,2.12-2.12v-8c0-1.74-.16-1.93-2-2.09v-1h7.4v1c-1.77.16-1.93.39-1.93,2.09v3a3.17,3.17,0,0,0,2.28-1.09,31.1,31.1,0,0,0,2.23-3.16c.67-1.06,1.67-2.19,2.93-2.19,1.06,0,1.57.55,1.57,1.26a1,1,0,0,1-1.12,1.06h-.65c-1.13,0-1.83.8-2.73,2.06a9,9,0,0,1-1.68,1.9v.13a4.64,4.64,0,0,1,2.45,1.57c.48.68.93,1.55,1.9,3.29s1.45,2.22,2.73,2.28v1Z" transform="translate(-98.89 -310.38)"/><path class="cls-1" d="M239.72,501.72c-.64.36-1.51.81-2.18,1.16a2.35,2.35,0,0,0-1.68,2.26,2.22,2.22,0,0,0,2.06,2.44,3.07,3.07,0,0,0,1.8-.74v-5.12Zm2.71,8.12a2.78,2.78,0,0,1-1.8-.65,3.28,3.28,0,0,1-.81-1.28c-1.25.83-2.77,1.93-3.51,1.93a4.11,4.11,0,0,1-4.18-4.06c0-1.64.8-2.51,2.51-3.12,1.9-.68,4.35-1.48,5.08-2.13v-.8c0-2.13-.9-3.32-2.25-3.32a1.43,1.43,0,0,0-1.19.58,5.44,5.44,0,0,0-.93,2.19,1.13,1.13,0,0,1-1.23,1,1.86,1.86,0,0,1-1.77-1.55c0-.51.39-.93,1.1-1.41a14.68,14.68,0,0,1,5.15-2.29,4.72,4.72,0,0,1,3,.9c1.29,1,1.61,2.38,1.61,4.12v5.57c0,1.48.51,1.9,1.06,1.9a2.57,2.57,0,0,0,1.1-.29l.35,1Z" transform="translate(-98.89 -310.38)"/><path class="cls-1" d="M258.2,499.57a9.67,9.67,0,0,0-.7-2.26c-.36-.61-.81-.87-1.87-.87h-1.16v9.86c0,1.73.16,2,2.35,2.18v1h-8.11v-1c2.06-.19,2.22-.41,2.22-2.18v-9.86h-1.29c-.93,0-1.48.2-1.8,1a17.47,17.47,0,0,0-.74,2.16l-1-.1c.13-1.48.2-3.41.23-4.19H259.1c0,.78,0,2.71.07,4.19Z" transform="translate(-98.89 -310.38)"/><path class="cls-1" d="M273.17,506.42c-1.44,2-3.57,3.42-5.5,3.42a6.63,6.63,0,0,1-6.79-6.8,7.71,7.71,0,0,1,3.25-6.21,9.24,9.24,0,0,1,5.24-1.93,4.7,4.7,0,0,1,2.81.8,1.28,1.28,0,0,1,.58,1.1c0,.84-.81,1.64-1.29,1.64a1.07,1.07,0,0,1-.68-.35,5,5,0,0,0-3.25-1.55c-1.58,0-3.15,1.42-3.15,4.86,0,4.35,3.05,5.76,4.6,5.76a4.89,4.89,0,0,0,3.6-1.48Z" transform="translate(-98.89 -310.38)"/><path class="cls-1" d="M280,506.52c0,1.55.45,1.84,1.51,1.84,1.67,0,3-1.2,3-3.61s-1.35-3.32-3.35-3.32a5.71,5.71,0,0,0-1.12.07v5Zm-5.67,2.93v-1c2.06-.19,2.19-.45,2.19-2.22v-7.82c0-1.8-.16-2.09-2-2.25v-.91h7.56v.91c-2,.16-2.12.45-2.12,2.22v2c.74-.06,1.38-.09,2.06-.09,4.22,0,6.24,1.35,6.24,4.31,0,3.51-3.25,4.83-7.14,4.83Z" transform="translate(-98.89 -310.38)"/><path class="cls-1" d="M303.05,509.45a3.32,3.32,0,0,1-3.48-1.87c-.7-1.29-1.32-2.77-1.77-3.64-.51-1.12-1.09-1.57-2.09-1.54v4c0,1.67.19,1.93,2.09,2.12v1h-7.66v-1c2-.19,2.13-.45,2.13-2.12v-8c0-1.74-.17-1.93-2-2.09v-1h7.4v1c-1.77.16-1.93.39-1.93,2.09v3a3.15,3.15,0,0,0,2.28-1.09,31.1,31.1,0,0,0,2.23-3.16c.67-1.06,1.67-2.19,2.93-2.19,1.06,0,1.57.55,1.57,1.26a1,1,0,0,1-1.12,1.06H303c-1.12,0-1.83.8-2.73,2.06a9,9,0,0,1-1.68,1.9v.13a4.64,4.64,0,0,1,2.45,1.57c.48.68.93,1.55,1.9,3.29s1.45,2.22,2.74,2.28v1Z" transform="translate(-98.89 -310.38)"/><path class="cls-1" d="M310.29,500.15c1.49,0,2.9,0,4.38-.1.52,0,.71-.1.74-.61,0-1.68-.87-3.28-2.28-3.28s-2.55,1.44-2.84,4Zm8.5,6.31a7.3,7.3,0,0,1-5.6,3.38c-4.15,0-6.5-3.19-6.5-6.89a8.06,8.06,0,0,1,2.29-5.73,6.92,6.92,0,0,1,4.86-2.32,5.17,5.17,0,0,1,5.08,5.05c0,.65-.19,1-.87,1.13s-4.54.39-7.92.51c.1,3.8,2.22,5.57,4.51,5.57a5.19,5.19,0,0,0,3.61-1.48Z" transform="translate(-98.89 -310.38)"/><path class="cls-1" d="M331.74,501.56c0,4,1.44,7.08,3.7,7.08,1.51,0,2.93-1,2.93-5.66,0-4.22-1.29-6.92-3.61-6.92-1.58,0-3,1.83-3,5.5Zm10.65.55c0,5.18-3.77,7.73-7.31,7.73a7,7,0,0,1-7.37-7.15,7.5,7.5,0,0,1,7.47-7.79A7.06,7.06,0,0,1,342.39,502.11Z" transform="translate(-98.89 -310.38)"/><path class="cls-1" d="M350,497.38c-.61.67-.93,1.51-1,3.64,0,4.73,1.55,7.62,3.48,7.62,1.42,0,2.86-1,2.86-5.95,0-4-1.35-6.53-3.21-6.53a2.84,2.84,0,0,0-2.16,1.22Zm9.4,4.51c0,5.34-3.64,7.95-7.15,7.95-4.44,0-7.11-3.67-7.08-8.82a14,14,0,0,1,2.83-8.47,11.18,11.18,0,0,1,4-3.45,11.43,11.43,0,0,1,3-1.22,8.17,8.17,0,0,0,2.89-1.19c.33-.22.49-.16.49.13a4.11,4.11,0,0,1-1.93,3.61,13.35,13.35,0,0,1-3.8,1.09c-1.93.32-3,1-3.48,1.74a5.67,5.67,0,0,0-.61,3.6l.07.07a6.33,6.33,0,0,1,4.37-2C357,494.9,359.39,498.05,359.39,501.89Z" transform="translate(-98.89 -310.38)"/><path class="cls-1" d="M366.86,490.36c0,2.64-2.45,4.22-4.8,4.83l-.38-1c1.7-.74,2.67-1.71,2.67-3s-.94-1.93-2.19-2.16c-.16,0-.42-.36-.42-1a1.54,1.54,0,0,1,1.64-1.38A3.63,3.63,0,0,1,366.86,490.36Z" transform="translate(-98.89 -310.38)"/><path class="cls-1" d="M373.07,502.66c0,2.51,1,5.95,3.86,5.95,1.26,0,2-.61,2.8-1.89.43-.68.81-1.1,1.32-1.1a.87.87,0,0,1,.81.93,2.69,2.69,0,0,1-1,1.77,6.3,6.3,0,0,1-4.38,1.52c-4,0-7.4-2.55-7.4-7.28,0-4.28,3-7.69,8.05-7.69a9.9,9.9,0,0,1,3.67.77c.22,1.25.38,2.38.58,3.54l-.94.29c-.54-1.45-1.28-3.38-3.47-3.41s-3.7,2.09-3.9,5.28l6.21-.26V503Z" transform="translate(-98.89 -310.38)"/><path class="cls-1" d="M391.9,497.7c0-1.16-.16-1.22-1.32-1.22h-1.35c-.93,0-1,.25-1,1.19a45,45,0,0,1-1.22,10c-.1.41,0,.58.48.58h2.8c1.55,0,1.64-.1,1.64-1.84V497.7Zm5.77-1.48c-2.1.16-2.22.45-2.22,2v8.12c0,1.67.19,1.87,1.12,1.87h1.26l-.68,6.18H396l-.35-2.71c-.26-1.8-.58-2.22-1.93-2.22h-6.95c-1.16,0-1.42.42-1.87,2.32l-.65,2.61h-1.06V508.2h1.1a.8.8,0,0,0,.77-.52,24.12,24.12,0,0,0,1-3.32,37.39,37.39,0,0,0,.57-6.53c0-1-.19-1.29-1.38-1.45l-1-.16v-.93h13.43Z" transform="translate(-98.89 -310.38)"/><path class="cls-1" d="M408.61,509.45v-1c1.45-.12,1.65-.38,1.65-2.22v-3.64h-5.09v3.71c0,1.77.16,2,1.45,2.15v1h-7v-1c1.83-.12,2-.32,2-2.19v-8c0-1.71-.2-2-2.1-2.09v-.91h7.15v.91c-1.35.13-1.51.41-1.51,2.12v3h5.09v-3c0-1.68-.16-1.9-1.68-2v-.91h7.15v.91c-1.77.13-1.93.38-1.93,2.06v8.08c0,1.74.19,2,2,2.15v1Z" transform="translate(-98.89 -310.38)"/><path class="cls-1" d="M425.42,501.72c-.64.36-1.52.81-2.19,1.16a2.34,2.34,0,0,0-1.67,2.26,2.22,2.22,0,0,0,2.06,2.44,3.1,3.1,0,0,0,1.8-.74v-5.12Zm2.7,8.12a2.8,2.8,0,0,1-1.8-.65,3.25,3.25,0,0,1-.8-1.28c-1.26.83-2.77,1.93-3.51,1.93a4.11,4.11,0,0,1-4.19-4.06c0-1.64.81-2.51,2.51-3.12,1.9-.68,4.35-1.48,5.09-2.13v-.8c0-2.13-.9-3.32-2.26-3.32A1.43,1.43,0,0,0,422,497a5.74,5.74,0,0,0-.93,2.19,1.12,1.12,0,0,1-1.22,1,1.86,1.86,0,0,1-1.77-1.55c0-.51.38-.93,1.09-1.41a14.85,14.85,0,0,1,5.15-2.29,4.7,4.7,0,0,1,3,.9c1.29,1,1.61,2.38,1.61,4.12v5.57c0,1.48.52,1.9,1.07,1.9a2.53,2.53,0,0,0,1.09-.29l.35,1Z" transform="translate(-98.89 -310.38)"/><path class="cls-1" d="M441.74,509.45v-1c1.45-.12,1.64-.38,1.64-2.22v-3.64H438.3v3.71c0,1.77.16,2,1.44,2.15v1h-7v-1c1.83-.12,2-.32,2-2.19v-8c0-1.71-.19-2-2.09-2.09v-.91h7.15v.91c-1.35.13-1.51.41-1.51,2.12v3h5.08v-3c0-1.68-.16-1.9-1.67-2v-.91h7.14v.91c-1.77.13-1.93.38-1.93,2.06v8.08c0,1.74.2,2,2,2.15v1Z" transform="translate(-98.89 -310.38)"/><path class="cls-1" d="M460.09,509.45v-1c1.45-.12,1.64-.38,1.64-2.22v-3.64h-5.08v3.71c0,1.77.16,2,1.44,2.15v1h-7v-1c1.83-.12,2-.32,2-2.19v-8c0-1.71-.19-2-2.09-2.09v-.91h7.15v.91c-1.35.13-1.51.41-1.51,2.12v3h5.08v-3c0-1.68-.16-1.9-1.67-2v-.91h7.15v.91c-1.77.13-1.94.38-1.94,2.06v8.08c0,1.74.2,2,2,2.15v1Z" transform="translate(-98.89 -310.38)"/><path class="cls-1" d="M478.79,497.57c0-.9-.19-1.16-1.31-1.16a2.67,2.67,0,0,0-2.84,2.83,2.61,2.61,0,0,0,1.22,2.39,4,4,0,0,0,2.26.51h.67v-4.57Zm-2,11.88v-1c1.87-.19,2-.38,2-2.25v-2.9H478a2.08,2.08,0,0,0-1.9.84,20.76,20.76,0,0,0-1.38,3.19,2.73,2.73,0,0,1-2.93,2.09h-3.13v-1a2.45,2.45,0,0,0,1.77-.74,13.62,13.62,0,0,0,1.13-2.25,4.77,4.77,0,0,1,3.45-2.8v-.07c-2.8-.48-4-1.83-4-3.6,0-2.7,2.42-3.74,5.7-3.74h7.66v.94c-2,.19-2.09.32-2.09,2.22v7.79c0,1.74.13,2.09,2.06,2.25v1Z" transform="translate(-98.89 -310.38)"/><path class="cls-1" d="M146.19,418c-2.63-8.3-7.11-17.79-18.05-17.79-8.3,0-13.44,6.06-13.44,13.44,0,8.17,5.4,12.52,16.6,18,7.42,3.75,14.15,7.69,18.39,13.12l-9.95,17.25c-1.28-6.75-7.23-11.08-16-15.61-11.72-6.06-22.53-13-22.53-26.48,0-13.71,10.94-24.9,29-24.9,7.64,0,14.36,2.23,17.79,3.29.52,4.88,1.31,10.41,2.37,18.71l-4.22.92Zm-19.42,66.53,3.16-5.48a17.65,17.65,0,0,1-4.16.48c-12.91,0-20-14.23-22.4-22.53l-4.48,1.32c.92,7.37,2.64,18.44,3.82,21.6a47.65,47.65,0,0,0,7.51,2.77,41.71,41.71,0,0,0,13,2C124.46,484.68,125.63,484.63,126.77,484.54Z" transform="translate(-98.89 -310.38)"/><path class="cls-1" d="M125.39,487.11h13.3l-5-14.44,6.08-10.53c4.34,12,8.67,24.16,13.1,35.89,2.73,7.27,3.8,8.18,9.09,8.84v2.65H139.6v-2.65c5-.74,5.45-1.65,4.3-5.12-.91-2.73-2.32-6.62-3.81-10.58H123.64c-1.08,3.05-2.23,6.2-3.23,9.5-1.4,4.47-1,5.46,5,6.2v2.65h-13Z" transform="translate(-98.89 -310.38)"/><line class="cls-2" x1="0.74" y1="221.36" x2="68.75" y2="103.88"/><path class="cls-1" d="M336.75,321a3.17,3.17,0,0,1-.21,1.58l-1.75.1c-1.21-2.08.37-2.09,2-1.68Zm-26.34,3.51c-2.85,0-3.76,1.78-5.49,3.5-2.53,2.54-8.3,6.06-11.57,6.79,0,1.6.33,1.65.45,2.95a2.65,2.65,0,0,1-.93,2.39c-1-.76-1.51-6.53-5.27-2.86-1.13,1.1-.78.63-2.23,1.16-2,.73-1.76,4.67-2.84,6.51-.59,1-.77,2-2.08,2.1-.29-1.54,1.2-3.44.77-6.92-4.31,0-4.11,2.11-4.67,3.64a37.84,37.84,0,0,1-2.39,6.07,39.46,39.46,0,0,1-6.12,8.32,42,42,0,0,1-6.35,5.27c-.74.57-1.23.85-1.85,1.25l-9.65,4.83a41.64,41.64,0,0,1-6.95,1.77l-10.08,1.62a22.89,22.89,0,0,0-6.52,1.86c-1.18.56-1.45.12-1.82,1.47,1.33.86,4-.67,5.54-.67H240c3.24,0,7.23.94,12.68.51l10.4-3.05c3.64-2.07,7.1-4.06,9.94-7a18.47,18.47,0,0,0,3.09-3.7c.55-1,.42-1.45,1.79-1.56.84.94.51,1.61-.12,2.91a24.06,24.06,0,0,1-3.49,5.28,6.53,6.53,0,0,1-1.14,1.15c-.83.65-.79.21-1.17,1.07.53,1.22,2.41.42,3.58.2a20.15,20.15,0,0,0,4.72-1.74l1-.5a12.67,12.67,0,0,0,4.25-3.92c5.15,2.15,8.77-2.86,5.8-6.58-.81-1-1.47-.81-2.3-1.57,4.47-5.41,5.85-3.8,10.31-5.79,2-.88,4.75-1.65,6.23-3.11,3.21-3.16,3.17-2.42,5.37-6.81,1-2,2.38-1,4.05-1.68,1.91-1.54-2.47-3.37.86-7.27,1.23-1.44,1.78-.43,5.89-5.44.42-.51.67-.71,1.07-1.16l6.68-6.62c1.94-1.65,1.43-.38,3.48-1,0-1.83.17-1.71,1.78-2s1.45-.72,3.15-.76c.19,2.63.88,3.91-2.83,3.91-1.2,0-.72-.27-1.88-.14-1.23,3.33,1.34,3.86,1.34,5.56V340a14.07,14.07,0,0,1-2,4.53c-5.31,6.54-11.51-.75-15.82-.75-1.12,0-3,1.25-3,2.45a2.76,2.76,0,0,0,2.71,2.5c1.55,0,1.74-1.22,2.55-2.08,1.67,0,1.74.26,2.48,1.33,3.07,4.46-.52,10.13-3.89,10.13-2.61,0-5.52-.08-6.71-2.83.86-1.55,3.68-2.77,1.89-4.8l-1.2-.82-2.28.41c-2.85,1.68.71,6.06.55,6.91-.28,1.46-3.71,2.28-1.15,5.51,1,1.23,5.07,1.9,4.2-.82-.44-1.4-1.57-.69-2.66-.69-2.27,0-.2-3.21,2.48-2,4.12,1.9,6.89.89,9.81-2.17,3.15-3.3,1.25-6.14,1.41-7.8s3.06.93,6.55-1,2-.95,3.48.18c2.25,1.74,4.28-1.06,4.66-1.35,3.19,1.31,2.73,1.82,5.84,1.82,1.85,0,3.53-2.08,2.59,1.75-.67,2.71,1,6.52,3.3,8,5.07,3.23,6.71.18,9.95.18.93,0,1.38.51,1.38,1.46,0,1.53-1.09.63-1.94.63-3.41,0-.23,5,2.58,1.95a3.44,3.44,0,0,0,1-1.84c.32-1.64-1-2.5-2-3.57.12-1.39,3.47-6,.16-7.53a2.44,2.44,0,0,0-3.25,3.28c.61,1.19,1.11.62,1.79,2-.24,2-2.26,3.06-4,3.13-2.7.1-3.47.16-5.59-1.8-1-.95-.83-.52-1.45-2-.88-2.06-.48-5.45,1.27-7.1.69-.65-.15-.6,1.5-.6,1.61.28,1.65,3.47,4.45,1.77,1.86-1.14,1.4-3.55-.57-4.37-3-1.23-7.79,3.12-11.23,3.12a6.29,6.29,0,0,1-4.72-1.6,6.36,6.36,0,0,1-2.15-2.94,6.18,6.18,0,0,1-.93-3.75c0-2.82-.44-13.37.06-14.86.44-1.34,1.54-.63,1.36-3.14-.12-1.62-.36-.83.37-1.89,1.2-1.76,1-3.12-.52-4.72-1.25-1.29-3.31,0-4.83-.83.61-3.3,5.84,1.53,5.87-2.31-1.36-1.08-2.85-.7-4.7-.7-5.64,0-6.28,3.11-9.83,7-2.68,2.94-6.79,4.62-9.86,6.53C311.15,326,312.86,324.52,310.41,324.52Z" transform="translate(-98.89 -310.38)"/><path class="cls-1" d="M251.56,334.38a2.29,2.29,0,0,1,.35-2.52c2.63-.07,1.47,2.09,2.63,3.08,2.36-4.16-2.4-3.05-2-7,1.69,0,2,.39,2.64,1.49a11.15,11.15,0,0,1,.8,1.42l.45,1.51c1.26-.1,1.28-.66,2.55-1,0,0,2.81,1.29-.67,2.39-1,.32-1.13.13-1.92.66a6,6,0,0,0-.67.66c-.28.43-.53.29.11.51l1.45.21c3.2.14,2.08,2.2.55,2.32-2,.15-4-2.27-4,2.25.3,1.07,1.42.73,1.79,2a1.92,1.92,0,0,1-3.08-1.43c-.4-2.6.68-2.71.77-4.52-.89-1.11-1.12-.23-1.65-1.94Zm4.6-4.61a15.66,15.66,0,0,0,2.95-.63l1.88-.95a2.33,2.33,0,0,0,.56-.63l-.54-1-2.16-.26c-2.35,3.82-2.91,1-2.69,3.46Zm-2-3.1c-.95-.66-1.38-1.26-.9-2.23,1.82-.89,3.55,2.47,3.59,3.35-.91.08-1.15-.05-2.69-1.12Zm2.12-4.89c-1.29-.23-.31-.11-.7.17,0,0-1,.22.26,1.56.09.1.79.62.83.64,1.48.79,1.06-.18,3.2.26,1.59.33,1.28-.06,1.67-.53-.48-1.74-.77-.28-1-2.1,1.61-.31,1.56,0,2.19-1.42-1.68-.39-.87.7-2.29-.84-.43-.47-1.48-1.58-1.48.11,0,2.27.66,2.44-1.14,3.33-.81-.52-.88-1.07-1.51-1.18Zm-8.12,11.43c-2.35.63-3.56-.73-3.56,4.54,0,1.38,1,2.36,1.77,3.22l2.61,2.49c1.52,1.24,2.16.5,3.87,1.23,2.43,1,1.6-.38,3.52-.87.85,1.24.14,2.46-.48,3.63-.91,1.68-2.66,2.11-4,2.78-2.94,1.44-6,3.19-8.15,5.7-.32.37-.31.41-.63.78l-1.82,2.44c-.87,1.53-3.8,8.87-1.29,8.87a34.81,34.81,0,0,0,4-1c7.42-1.47,14.7-5.9,20.37-10.8a22.85,22.85,0,0,0,3.63-3.73c.4-.53.23-.41.71-1,1.65-2,4.32-5.95,5.07-8.23-1.5.06-5.62,2.84-6.15-.86-.14-.93.74-1.91,1.61-2.52l1.95-1.2.18-.1.71-.41a5,5,0,0,0,2.22-2.42c-.54-1.16-.67-.66-1.24-1.7-1.44-2.66.28-3.86-.29-5.07-.91-1.91-1.6.33-5.42-5.35-.94-1.41-.42-2-3-4.1-.82-.67-1.42-.78-2.28-1.4-2-1.45-2.33-2.32-4.5-.68-1.5,1.14-.58,1.09-1.09,2.63-.37,1.09-5.37,2.27-7.31,6.79C248.18,329.28,248.94,331,248.17,333.21Z" transform="translate(-98.89 -310.38)"/><path class="cls-1" d="M348.9,365.76a7.69,7.69,0,0,0,1.78,1.6c5.05,3.71,10.72,3.95,16.28,1.19.3-.14,5.63-3.39,2.58-3.39h-4.25a13.38,13.38,0,0,1-2.54.26c-.67,0-.7-.26-1.7-.26a12.25,12.25,0,0,0-1.45.18c-.77,0-.71-.18-1.66-.18C355.71,365.16,349.36,364.67,348.9,365.76Z" transform="translate(-98.89 -310.38)"/><path class="cls-1" d="M320.6,365.16H301.91c-4,0,3.33,5.17,9.35,5.22,4.21,0,6.62-1.27,9.48-3.34C321.87,366.21,322.79,365.16,320.6,365.16Z" transform="translate(-98.89 -310.38)"/></svg>